<svg width="40" height="26" viewBox="0 0 40 26" fill="none" xmlns="http://www.w3.org/2000/svg">
<rect x="0.5" y="0.5" width="39" height="25" rx="4.5" fill="white" stroke="#E3E3E3"/>
<path d="M19.3333 9C18.8913 9 18.4674 9.15925 18.1548 9.44271C17.8423 9.72616 17.6667 10.1106 17.6667 10.5115V16.5574C17.6667 16.9583 17.8423 17.3428 18.1548 17.6262C18.4674 17.9097 18.8913 18.0689 19.3333 18.0689C19.7754 18.0689 20.1993 17.9097 20.5118 17.6262C20.8244 17.3428 21 16.9583 21 16.5574C21 16.1566 20.8244 15.7721 20.5118 15.4887C20.1993 15.2052 19.7754 15.046 19.3333 15.046H12.6667C12.2246 15.046 11.8007 15.2052 11.4882 15.4887C11.1756 15.7721 11 16.1566 11 16.5574C11 16.9583 11.1756 17.3428 11.4882 17.6262C11.8007 17.9097 12.2246 18.0689 12.6667 18.0689C13.1087 18.0689 13.5326 17.9097 13.8452 17.6262C14.1577 17.3428 14.3333 16.9583 14.3333 16.5574V10.5115C14.3333 10.1106 14.1577 9.72616 13.8452 9.44271C13.5326 9.15925 13.1087 9 12.6667 9C12.2246 9 11.8007 9.15925 11.4882 9.44271C11.1756 9.72616 11 10.1106 11 10.5115C11 10.9124 11.1756 11.2968 11.4882 11.5803C11.8007 11.8637 12.2246 12.023 12.6667 12.023H19.3333C19.7754 12.023 20.1993 11.8637 20.5118 11.5803C20.8244 11.2968 21 10.9124 21 10.5115C21 10.1106 20.8244 9.72616 20.5118 9.44271C20.1993 9.15925 19.7754 9 19.3333 9Z" fill="white" stroke="#545658" stroke-width="1.3" stroke-linecap="round" stroke-linejoin="round"/>
<path d="M31.594 8.242V9.278H27.352V12.568H30.796V13.604H27.352V18H26.078V8.242H31.594Z" fill="#545658"/>
</svg>
