<svg width="26" height="27" viewBox="0 0 26 27" fill="none" xmlns="http://www.w3.org/2000/svg">
<path d="M20.6701 14.867V10.9428C20.6701 7.42248 18.394 4.45694 15.3107 3.5651C15.0055 2.75751 14.2597 2.18848 13.3784 2.18848C12.4972 2.18848 11.7513 2.75751 11.4461 3.5651C8.36279 4.45804 6.08675 7.42248 6.08675 10.9428V14.867L4.30863 16.7349C4.21171 16.8364 4.13485 16.9569 4.08247 17.0897C4.03008 17.2225 4.00322 17.3648 4.00342 17.5086V19.6972C4.00342 19.9874 4.11317 20.2657 4.30852 20.4709C4.50387 20.6762 4.76882 20.7914 5.04509 20.7914H21.7118C21.988 20.7914 22.253 20.6762 22.4483 20.4709C22.6437 20.2657 22.7534 19.9874 22.7534 19.6972V17.5086C22.7536 17.3648 22.7268 17.2225 22.6744 17.0897C22.622 16.9569 22.5451 16.8364 22.4482 16.7349L20.6701 14.867ZM20.6701 18.6029H6.08675V17.9616L7.86488 16.0937C7.9618 15.9922 8.03866 15.8716 8.09104 15.7388C8.14342 15.6061 8.17028 15.4637 8.17009 15.32V10.9428C8.17009 7.92585 10.5065 5.47135 13.3784 5.47135C16.2503 5.47135 18.5868 7.92585 18.5868 10.9428V15.32C18.5868 15.6111 18.6961 15.889 18.892 16.0937L20.6701 17.9616V18.6029ZM13.3784 24.0743C14.0235 24.0752 14.6529 23.8649 15.1789 23.4726C15.705 23.0804 16.1017 22.5257 16.3138 21.8857H10.443C10.6552 22.5257 11.0518 23.0804 11.5779 23.4726C12.104 23.8649 12.7333 24.0752 13.3784 24.0743Z" fill="#545658"/>
<rect x="14.9617" y="1.68848" width="8.29167" height="8.66005" rx="4.14583" fill="#FF6A55" stroke="white"/>
</svg>
