<svg width="24" height="16" viewBox="0 0 24 16" fill="none" xmlns="http://www.w3.org/2000/svg">
<path d="M11.7116 8.66683C12.2318 8.66683 12.6534 8.36835 12.6534 8.00016C12.6534 7.63197 12.2318 7.3335 11.7116 7.3335C11.1914 7.3335 10.7698 7.63197 10.7698 8.00016C10.7698 8.36835 11.1914 8.66683 11.7116 8.66683Z" stroke="#545658" stroke-width="1.5" stroke-linecap="round" stroke-linejoin="round"/>
<path d="M11.7116 3.99984C12.2318 3.99984 12.6534 3.70136 12.6534 3.33317C12.6534 2.96498 12.2318 2.6665 11.7116 2.6665C11.1914 2.6665 10.7698 2.96498 10.7698 3.33317C10.7698 3.70136 11.1914 3.99984 11.7116 3.99984Z" stroke="#545658" stroke-width="1.5" stroke-linecap="round" stroke-linejoin="round"/>
<path d="M11.7116 13.3333C12.2318 13.3333 12.6534 13.0349 12.6534 12.6667C12.6534 12.2985 12.2318 12 11.7116 12C11.1914 12 10.7698 12.2985 10.7698 12.6667C10.7698 13.0349 11.1914 13.3333 11.7116 13.3333Z" stroke="#545658" stroke-width="1.5" stroke-linecap="round" stroke-linejoin="round"/>
</svg>
