<svg width="25" height="24" viewBox="0 0 25 24" fill="none" xmlns="http://www.w3.org/2000/svg">
<path d="M12.2563 6C7.18014 6 2.04272 7.546 2.04272 10.5V14.5C2.04272 17.454 7.18014 19 12.2563 19C17.3324 19 22.4698 17.454 22.4698 14.5V10.5C22.4698 7.546 17.3324 6 12.2563 6ZM4.08543 14.5V13.303C4.7323 13.6617 5.41727 13.9501 6.12814 14.163V16.044C4.78812 15.53 4.08543 14.918 4.08543 14.5ZM16.3417 14.648V16.619C15.4562 16.798 14.4348 16.929 13.2776 16.977V14.977C14.3055 14.9369 15.3293 14.827 16.3417 14.648ZM11.2349 16.978C10.2054 16.9394 9.18073 16.8197 8.17085 16.62V14.649C9.15033 14.823 10.185 14.936 11.2349 14.979V16.978ZM18.3844 16.044V14.163C19.0954 13.9505 19.7804 13.6621 20.4271 13.303V14.5C20.4271 14.918 19.7254 15.53 18.3844 16.044ZM12.2563 13C6.96872 13 4.08543 11.349 4.08543 10.5C4.08543 9.651 6.96872 8 12.2563 8C17.5438 8 20.4271 9.651 20.4271 10.5C20.4271 11.349 17.5438 13 12.2563 13Z" fill="white"/>
</svg>
