<svg width="14" height="13" viewBox="0 0 14 13" fill="none" xmlns="http://www.w3.org/2000/svg">
<g clip-path="url(#clip0_202_2220)">
<path d="M6.3653 2.1665H2.53959C2.2497 2.1665 1.97167 2.28064 1.76668 2.4838C1.56169 2.68697 1.44653 2.96252 1.44653 3.24984V10.8332C1.44653 11.1205 1.56169 11.396 1.76668 11.5992C1.97167 11.8024 2.2497 11.9165 2.53959 11.9165H10.191C10.4809 11.9165 10.7589 11.8024 10.9639 11.5992C11.1689 11.396 11.2841 11.1205 11.2841 10.8332V7.0415" stroke="#545658" stroke-width="1.3" stroke-linecap="round" stroke-linejoin="round"/>
<path d="M10.4644 1.35413C10.6818 1.13864 10.9767 1.01758 11.2842 1.01758C11.5917 1.01758 11.8866 1.13864 12.104 1.35413C12.3214 1.56962 12.4436 1.86188 12.4436 2.16663C12.4436 2.47137 12.3214 2.76364 12.104 2.97913L6.91195 8.12496L4.72583 8.66663L5.27236 6.49996L10.4644 1.35413Z" stroke="#545658" stroke-width="1.3" stroke-linecap="round" stroke-linejoin="round"/>
</g>
<defs>
<clipPath id="clip0_202_2220">
<rect width="13.1167" height="13" fill="white" transform="translate(0.353516)"/>
</clipPath>
</defs>
</svg>
