<svg width="14" height="13" viewBox="0 0 14 13" fill="none" xmlns="http://www.w3.org/2000/svg">
<path d="M6.01179 2.1665H2.18608C1.89618 2.1665 1.61816 2.28064 1.41317 2.4838C1.20818 2.68697 1.09302 2.96252 1.09302 3.24984V10.8332C1.09302 11.1205 1.20818 11.396 1.41317 11.5992C1.61816 11.8024 1.89618 11.9165 2.18608 11.9165H9.8375C10.1274 11.9165 10.4054 11.8024 10.6104 11.5992C10.8154 11.396 10.9306 11.1205 10.9306 10.8332V7.0415" stroke="white" stroke-width="1.3" stroke-linecap="round" stroke-linejoin="round"/>
<path d="M10.1109 1.35413C10.3283 1.13864 10.6232 1.01758 10.9307 1.01758C11.2382 1.01758 11.533 1.13864 11.7505 1.35413C11.9679 1.56962 12.09 1.86188 12.09 2.16663C12.09 2.47137 11.9679 2.76364 11.7505 2.97913L6.55844 8.12496L4.37231 8.66663L4.91884 6.49996L10.1109 1.35413Z" stroke="white" stroke-width="1.3" stroke-linecap="round" stroke-linejoin="round"/>
</svg>
