<svg width="31" height="21" viewBox="0 0 31 21" fill="none" xmlns="http://www.w3.org/2000/svg">
<path d="M18.0543 1.75H8.16506C7.50936 1.75 6.88052 1.93437 6.41687 2.26256C5.95322 2.59075 5.69275 3.03587 5.69275 3.5V17.5C5.69275 17.9641 5.95322 18.4092 6.41687 18.7374C6.88052 19.0656 7.50936 19.25 8.16506 19.25H22.9989C23.6546 19.25 24.2835 19.0656 24.7471 18.7374C25.2107 18.4092 25.4712 17.9641 25.4712 17.5V7L18.0543 1.75Z" stroke="#FF9158" stroke-width="1.5" stroke-linecap="round" stroke-linejoin="round"/>
<path d="M18.0543 1.75V7H25.4712" stroke="#FF9158" stroke-width="1.5" stroke-linecap="round" stroke-linejoin="round"/>
<path d="M20.5267 11.375H10.6375" stroke="#FF9158" stroke-width="1.5" stroke-linecap="round" stroke-linejoin="round"/>
<path d="M20.5267 14.875H10.6375" stroke="#FF9158" stroke-width="1.5" stroke-linecap="round" stroke-linejoin="round"/>
<path d="M13.1098 7.875H11.8736H10.6375" stroke="#FF9158" stroke-width="1.5" stroke-linecap="round" stroke-linejoin="round"/>
</svg>
