<svg width="27" height="18" viewBox="0 0 27 18" fill="none" xmlns="http://www.w3.org/2000/svg">
<path d="M3.9812 4.5H6.10032H23.0533" stroke="#FF2D2D" stroke-width="1.5" stroke-linecap="round" stroke-linejoin="round"/>
<path d="M9.27903 4.5V3C9.27903 2.60218 9.50229 2.22064 9.8997 1.93934C10.2971 1.65804 10.8361 1.5 11.3981 1.5H15.6364C16.1984 1.5 16.7374 1.65804 17.1348 1.93934C17.5322 2.22064 17.7555 2.60218 17.7555 3V4.5M20.9342 4.5V15C20.9342 15.3978 20.7109 15.7794 20.3135 16.0607C19.9161 16.342 19.3771 16.5 18.8151 16.5H8.21946C7.65744 16.5 7.11843 16.342 6.72102 16.0607C6.32361 15.7794 6.10034 15.3978 6.10034 15V4.5H20.9342Z" stroke="#FF2D2D" stroke-width="1.5" stroke-linecap="round" stroke-linejoin="round"/>
<path d="M11.3982 8.25V12.75" stroke="#FF2D2D" stroke-width="1.5" stroke-linecap="round" stroke-linejoin="round"/>
<path d="M15.6362 8.25V12.75" stroke="#FF2D2D" stroke-width="1.5" stroke-linecap="round" stroke-linejoin="round"/>
</svg>
