<svg width="43" height="26" viewBox="0 0 43 26" fill="none" xmlns="http://www.w3.org/2000/svg">
<g clip-path="url(#clip0_202_2682)">
<path d="M27.3134 2.78076H15.6868V23.2196H27.3134V2.78076Z" fill="#FF5F00"/>
<path d="M16.4249 13C16.4249 8.84723 18.418 5.1639 21.4815 2.78056C19.23 1.04723 16.388 0 13.2876 0C5.94249 0 0 5.81389 0 13C0 20.1861 5.94249 26 13.2876 26C16.388 26 19.23 24.9528 21.4815 23.2195C18.418 20.8722 16.4249 17.1528 16.4249 13Z" fill="#EB001B"/>
<path d="M43 13C43 20.1861 37.0575 26 29.7124 26C26.612 26 23.7699 24.9528 21.5184 23.2195C24.6189 20.8361 26.5751 17.1528 26.5751 13C26.5751 8.84723 24.5819 5.1639 21.5184 2.78056C23.7699 1.04723 26.612 0 29.7124 0C37.0575 0 43 5.85 43 13Z" fill="#F79E1B"/>
</g>
<defs>
<clipPath id="clip0_202_2682">
<rect width="43" height="26" fill="white"/>
</clipPath>
</defs>
</svg>
